<svg xmlns="http://www.w3.org/2000/svg" viewBox="0 0 220 700" fill="none">
  <defs>
    <linearGradient id="stem" x1="0" y1="700" x2="0" y2="0" gradientUnits="userSpaceOnUse">
      <stop offset="0" stop-color="#5f8569"/>
      <stop offset="1" stop-color="#89ad91"/>
    </linearGradient>
    <linearGradient id="leafA" x1="0" y1="0" x2="1" y2="1">
      <stop offset="0" stop-color="#d8edcc"/>
      <stop offset="1" stop-color="#8caf8d"/>
    </linearGradient>
    <linearGradient id="leafB" x1="0" y1="0" x2="1" y2="1">
      <stop offset="0" stop-color="#edf6dc"/>
      <stop offset="1" stop-color="#aac09a"/>
    </linearGradient>
    <radialGradient id="petal" cx="0.5" cy="0.5" r="0.5">
      <stop offset="0" stop-color="#fffaf6"/>
      <stop offset="0.6" stop-color="#f7e3db"/>
      <stop offset="1" stop-color="#e7b9aa"/>
    </radialGradient>
  </defs>

  <g opacity="0.95" stroke-linecap="round">
    <path d="M18 690C30 586 38 532 54 470C71 404 96 338 122 289" stroke="url(#stem)" stroke-width="6"/>
    <path d="M15 636C35 596 66 552 96 531" stroke="url(#stem)" stroke-width="4.2"/>
    <path d="M38 576C53 541 78 505 112 482" stroke="url(#stem)" stroke-width="3.8"/>
    <path d="M72 509C93 463 125 432 159 404" stroke="url(#stem)" stroke-width="3.6"/>
    <path d="M86 442C104 406 130 378 162 356" stroke="url(#stem)" stroke-width="3.2"/>
  </g>

  <g fill="url(#leafA)" opacity="0.93">
    <ellipse cx="55" cy="602" rx="18" ry="39" transform="rotate(-22 55 602)"/>
    <ellipse cx="80" cy="558" rx="17" ry="36" transform="rotate(-14 80 558)"/>
    <ellipse cx="104" cy="516" rx="16" ry="34" transform="rotate(-8 104 516)"/>
    <ellipse cx="132" cy="470" rx="15" ry="30" transform="rotate(2 132 470)"/>
    <ellipse cx="156" cy="427" rx="14" ry="28" transform="rotate(10 156 427)"/>
  </g>

  <g fill="url(#leafB)" opacity="0.9">
    <ellipse cx="34" cy="616" rx="14" ry="31" transform="rotate(24 34 616)"/>
    <ellipse cx="59" cy="574" rx="14" ry="29" transform="rotate(17 59 574)"/>
    <ellipse cx="86" cy="533" rx="13" ry="28" transform="rotate(10 86 533)"/>
    <ellipse cx="118" cy="489" rx="12" ry="25" transform="rotate(0 118 489)"/>
    <ellipse cx="141" cy="447" rx="11" ry="23" transform="rotate(-12 141 447)"/>
    <ellipse cx="170" cy="397" rx="10" ry="22" transform="rotate(-18 170 397)"/>
  </g>

  <g opacity="0.98">
    <g transform="translate(150 336)">
      <circle r="22" fill="url(#petal)"/>
      <circle r="6" fill="#e3a798"/>
      <ellipse cx="-18" cy="-3" rx="9" ry="13" fill="#f5ddd6" transform="rotate(-26)"/>
      <ellipse cx="16" cy="4" rx="9" ry="13" fill="#f5ddd6" transform="rotate(26)"/>
      <ellipse cx="-2" cy="-17" rx="9" ry="13" fill="#f5ddd6"/>
      <ellipse cx="1" cy="18" rx="9" ry="13" fill="#f5ddd6"/>
    </g>

    <g transform="translate(122 373) scale(0.78)">
      <circle r="20" fill="url(#petal)"/>
      <circle r="5" fill="#db9c8d"/>
      <ellipse cx="-16" cy="-2" rx="8" ry="12" fill="#f5ddd6" transform="rotate(-24)"/>
      <ellipse cx="14" cy="4" rx="8" ry="12" fill="#f5ddd6" transform="rotate(25)"/>
      <ellipse cx="-2" cy="-15" rx="8" ry="12" fill="#f5ddd6"/>
      <ellipse cx="1" cy="16" rx="8" ry="12" fill="#f5ddd6"/>
    </g>
  </g>
</svg>
